<svg fill="none" height="512" viewBox="0 0 512 512" width="512" xmlns="http://www.w3.org/2000/svg" xmlns:xlink="http://www.w3.org/1999/xlink"><filter id="a" color-interpolation-filters="sRGB" filterUnits="userSpaceOnUse" height="424" width="424" x="44" y="46"><feFlood flood-opacity="0" result="BackgroundImageFix"/><feColorMatrix in="SourceAlpha" result="hardAlpha" type="matrix" values="0 0 0 0 0 0 0 0 0 0 0 0 0 0 0 0 0 0 127 0"/><feOffset dy="2"/><feGaussianBlur stdDeviation="2"/><feComposite in2="hardAlpha" operator="out"/><feColorMatrix type="matrix" values="0 0 0 0 0 0 0 0 0 0 0 0 0 0 0 0 0 0 0.12 0"/><feBlend in2="BackgroundImageFix" mode="normal" result="effect1_dropShadow_4_29"/><feBlend in="SourceGraphic" in2="effect1_dropShadow_4_29" mode="normal" result="shape"/></filter><clipPath id="b"><rect height="512" rx="96" width="512"/></clipPath><g clip-path="url(#b)"><path d="m0 0h512v512h-512z" fill="#ededed"/><g filter="url(#a)"><path clip-rule="evenodd" d="m256 464c114.875 0 208-93.125 208-208s-93.125-208-208-208-208 93.125-208 208 93.125 208 208 208zm128-208c0 70.692-57.308 128-128 128s-128-57.308-128-128 57.308-128 128-128 128 57.308 128 128zm16 0c0 79.529-64.471 144-144 144s-144-64.471-144-144 64.471-144 144-144 144 64.471 144 144z" fill="#474747" fill-rule="evenodd"/></g></g></svg>