<svg width="512" height="512" viewBox="0 0 512 512" fill="none" xmlns="http://www.w3.org/2000/svg">
<g clip-path="url(#clip0_1_23)">
<rect width="512" height="512" fill="#EDEDED"/>
<g filter="url(#filter0_d_1_23)">
<path fill-rule="evenodd" clip-rule="evenodd" d="M448 256C448 362.039 362.039 448 256 448C149.961 448 64 362.039 64 256C64 149.961 149.961 64 256 64C362.039 64 448 149.961 448 256ZM256 368C317.856 368 368 317.856 368 256C368 194.144 317.856 144 256 144C194.144 144 144 194.144 144 256C144 317.856 194.144 368 256 368ZM256 384C326.692 384 384 326.692 384 256C384 185.308 326.692 128 256 128C185.308 128 128 185.308 128 256C128 326.692 185.308 384 256 384ZM304 256C304 282.51 282.51 304 256 304C229.49 304 208 282.51 208 256C208 229.49 229.49 208 256 208C282.51 208 304 229.49 304 256ZM320 256C320 291.346 291.346 320 256 320C220.654 320 192 291.346 192 256C192 220.654 220.654 192 256 192C291.346 192 320 220.654 320 256Z" fill="#474747"/>
</g>
</g>
<defs>
<filter id="filter0_d_1_23" x="60" y="62" width="392" height="392" filterUnits="userSpaceOnUse" color-interpolation-filters="sRGB">
<feFlood flood-opacity="0" result="BackgroundImageFix"/>
<feColorMatrix in="SourceAlpha" type="matrix" values="0 0 0 0 0 0 0 0 0 0 0 0 0 0 0 0 0 0 127 0" result="hardAlpha"/>
<feOffset dy="2"/>
<feGaussianBlur stdDeviation="2"/>
<feComposite in2="hardAlpha" operator="out"/>
<feColorMatrix type="matrix" values="0 0 0 0 0 0 0 0 0 0 0 0 0 0 0 0 0 0 0.12 0"/>
<feBlend mode="normal" in2="BackgroundImageFix" result="effect1_dropShadow_1_23"/>
<feBlend mode="normal" in="SourceGraphic" in2="effect1_dropShadow_1_23" result="shape"/>
</filter>
<clipPath id="clip0_1_23">
<rect width="512" height="512" rx="96" fill="white"/>
</clipPath>
</defs>
</svg>
